# xmcd
#
# Track frame offsets:
#	150
#	16668
#	36345
#	55668
#	73989
#	92883
#	108735
#	125266
#	144876
#	164001
#	182189
#	201069
#
# Disc length: 2889 seconds
#
# Revision: 0
# Processed by: cddbd v1.5.2PL0 Copyright (c) Steve Scherf et al.
# Submitted via: audiograbber 1.83.01
#
DISCID=aa0b470c
DTITLE=Little Texas - CB20236
DYEAR=1900
DGENRE=Karaoke
TTITLE0=God Blessed Texas
TTITLE1=My Love
TTITLE2=First Time For Everything
TTITLE3=I'd Rather Miss You
TTITLE4=What Might Have Been
TTITLE5=What Were You Thinking
TTITLE6=God Blessed Texas
TTITLE7=My Love
TTITLE8=First Time For Everything
TTITLE9=I'd Rather Miss You
TTITLE10=What Might Have Been
TTITLE11=What Were You Thinking
EXTD=
EXTT0=
EXTT1=
EXTT2=
EXTT3=
EXTT4=
EXTT5=
EXTT6=
EXTT7=
EXTT8=
EXTT9=
EXTT10=
EXTT11=
PLAYORDER=
